<svg data-v-423bf9ae="" xmlns="http://www.w3.org/2000/svg" viewBox="0 0 360 90" class="iconLeft"><g data-v-423bf9ae="" id="68db6fb2-fd5f-4eaf-a759-818baaa148e3" fill="white" transform="matrix(5.4446458718365625,0,0,5.4446458718365625,86.45875221659122,7.377496266867155)"><path d="M9.25 1.82Q9.25 1.64 9.37 1.52Q9.49 1.40 9.67 1.40L9.67 1.40Q9.84 1.40 9.97 1.52Q10.09 1.64 10.09 1.82L10.09 1.82L10.09 11.91Q10.09 12.10 9.97 12.21Q9.84 12.33 9.67 12.33L9.67 12.33Q9.48 12.33 9.37 12.21L9.37 12.21L2.24 2.94L2.24 11.91Q2.24 12.10 2.12 12.21Q2.00 12.33 1.82 12.33L1.82 12.33Q1.64 12.33 1.52 12.21Q1.40 12.10 1.40 11.91L1.40 11.91L1.40 1.82Q1.40 1.64 1.52 1.52Q1.64 1.40 1.82 1.40L1.82 1.40Q2.02 1.40 2.14 1.54L2.14 1.54L9.25 10.79L9.25 1.82ZM15.93 4.61Q16.95 4.61 17.76 5.09Q18.56 5.57 19.01 6.43Q19.46 7.28 19.46 8.37L19.46 8.37Q19.46 8.55 19.35 8.66Q19.24 8.76 19.05 8.76L19.05 8.76L13.19 8.76Q13.23 9.59 13.62 10.24Q14.01 10.89 14.67 11.26Q15.33 11.62 16.14 11.62L16.14 11.62Q16.69 11.62 17.24 11.43Q17.79 11.24 18.12 10.93L18.12 10.93Q18.26 10.82 18.41 10.82L18.41 10.82Q18.56 10.82 18.66 10.91L18.66 10.91Q18.82 11.03 18.82 11.20L18.82 11.20Q18.82 11.34 18.69 11.47L18.69 11.47Q18.24 11.87 17.52 12.14Q16.80 12.40 16.14 12.40L16.14 12.40Q15.04 12.40 14.18 11.91Q13.31 11.41 12.82 10.52Q12.33 9.63 12.33 8.51L12.33 8.51Q12.33 7.38 12.79 6.49Q13.24 5.60 14.06 5.10Q14.88 4.61 15.93 4.61L15.93 4.61ZM15.93 5.39Q14.84 5.39 14.09 6.12Q13.34 6.85 13.20 8.04L13.20 8.04L18.65 8.04Q18.55 6.85 17.81 6.12Q17.07 5.39 15.93 5.39L15.93 5.39ZM26.43 11.65Q26.56 11.82 26.56 11.97L26.56 11.97Q26.56 12.14 26.43 12.24Q26.31 12.33 26.18 12.33L26.18 12.33Q26.01 12.33 25.92 12.28Q25.83 12.22 25.70 12.07L25.70 12.07L23.35 8.95L20.80 12.21Q20.72 12.33 20.51 12.33L20.51 12.33Q20.33 12.33 20.21 12.21Q20.09 12.08 20.09 11.91L20.09 11.91Q20.09 11.76 20.19 11.65L20.19 11.65L22.79 8.41L20.50 5.38Q20.40 5.26 20.40 5.10L20.40 5.10Q20.40 4.93 20.52 4.80Q20.64 4.68 20.82 4.68L20.82 4.68Q21.00 4.68 21.13 4.80L21.13 4.80L23.37 7.78L25.70 4.93Q25.91 4.68 26.14 4.68L26.14 4.68Q26.32 4.68 26.42 4.79Q26.53 4.90 26.53 5.07L26.53 5.07Q26.53 5.22 26.42 5.38L26.42 5.38L23.94 8.33L26.43 11.65ZM31.25 4.59Q32.34 4.59 33.24 5.10Q34.13 5.61 34.64 6.51Q35.15 7.41 35.15 8.51L35.15 8.51Q35.15 9.60 34.64 10.50Q34.13 11.40 33.24 11.91Q32.34 12.42 31.25 12.42L31.25 12.42Q30.14 12.42 29.25 11.91Q28.35 11.40 27.84 10.50Q27.33 9.60 27.33 8.51L27.33 8.51Q27.33 7.41 27.84 6.51Q28.35 5.61 29.25 5.10Q30.14 4.59 31.25 4.59L31.25 4.59ZM31.25 5.38Q30.38 5.38 29.68 5.79Q28.98 6.20 28.57 6.92Q28.17 7.63 28.17 8.51L28.17 8.51Q28.17 9.39 28.57 10.11Q28.98 10.82 29.68 11.23Q30.38 11.63 31.25 11.63L31.25 11.63Q32.12 11.63 32.82 11.23Q33.52 10.82 33.91 10.11Q34.31 9.39 34.31 8.51L34.31 8.51Q34.31 7.63 33.91 6.92Q33.52 6.20 32.82 5.79Q32.12 5.38 31.25 5.38L31.25 5.38ZM40.50 4.59Q41.57 4.59 41.57 5.05L41.57 5.05Q41.57 5.12 41.55 5.17L41.55 5.17Q41.51 5.32 41.42 5.38Q41.33 5.45 41.17 5.45L41.17 5.45Q41.05 5.45 40.84 5.42Q40.64 5.39 40.50 5.39L40.50 5.39Q39.80 5.39 39.26 5.68Q38.71 5.98 38.40 6.50Q38.09 7.01 38.09 7.66L38.09 7.66L38.09 11.91Q38.09 12.10 37.98 12.21Q37.87 12.33 37.67 12.33L37.67 12.33Q37.49 12.33 37.37 12.21Q37.25 12.10 37.25 11.91L37.25 11.91L37.25 5.10Q37.25 4.90 37.37 4.79Q37.49 4.68 37.67 4.68L37.67 4.68Q37.87 4.68 37.98 4.79Q38.09 4.90 38.09 5.10L38.09 5.10L38.09 5.96Q38.50 5.32 39.13 4.96Q39.76 4.59 40.50 4.59L40.50 4.59ZM46.33 4.59Q47.42 4.59 48.31 5.10Q49.21 5.61 49.72 6.51Q50.23 7.41 50.23 8.51L50.23 8.51L50.23 11.91Q50.23 12.10 50.12 12.21Q50.01 12.33 49.81 12.33L49.81 12.33Q49.63 12.33 49.51 12.21Q49.39 12.10 49.39 11.91L49.39 11.91L49.39 10.82Q48.93 11.56 48.12 11.99Q47.32 12.42 46.33 12.42L46.33 12.42Q45.22 12.42 44.32 11.91Q43.43 11.40 42.92 10.50Q42.41 9.60 42.41 8.51L42.41 8.51Q42.41 7.41 42.92 6.51Q43.43 5.61 44.32 5.10Q45.22 4.59 46.33 4.59L46.33 4.59ZM46.33 11.63Q47.19 11.63 47.89 11.23Q48.59 10.82 48.99 10.11Q49.39 9.39 49.39 8.51L49.39 8.51Q49.39 7.63 48.99 6.92Q48.59 6.20 47.89 5.79Q47.19 5.38 46.33 5.38L46.33 5.38Q45.46 5.38 44.76 5.79Q44.06 6.20 43.65 6.92Q43.25 7.63 43.25 8.51L43.25 8.51Q43.25 9.39 43.65 10.11Q44.06 10.82 44.76 11.23Q45.46 11.63 46.33 11.63L46.33 11.63Z"></path></g><g data-v-423bf9ae="" id="61d02860-1d93-4651-bc5d-a333acef1de4" transform="matrix(2.8125,0,0,2.8125,-7.170000076293945,0)" stroke="none" fill="white"><path d="m2.83 18.247 26.34-9.124L2.83 0zM29.17 32V13.753L2.83 22.877z"></path></g></svg>